<svg width="136" height="48" viewBox="0 0 136 48" fill="none" xmlns="http://www.w3.org/2000/svg">
<path d="M0.592 24.088C0.688 23.864 0.952 23.272 1.384 22.312C1.816 21.368 2.376 20.136 3.064 18.616C3.768 17.08 4.552 15.344 5.416 13.408C6.296 11.456 7.224 9.392 8.2 7.216C8.248 7.104 8.296 6.96 8.344 6.784C8.408 6.592 8.44 6.408 8.44 6.232C8.44 6.056 8.384 5.912 8.272 5.8C8.176 5.672 7.96 5.608 7.624 5.608C6.952 5.608 6.392 5.84 5.944 6.304C5.512 6.752 5.184 7.312 4.96 7.984C4.752 8.656 4.648 9.32 4.648 9.976C4.648 10.136 4.648 10.272 4.648 10.384C4.664 10.496 4.68 10.608 4.696 10.72C4.392 10.72 4.144 10.616 3.952 10.408C3.776 10.184 3.64 9.92 3.544 9.616C3.464 9.296 3.424 9.008 3.424 8.752C3.424 8.224 3.568 7.72 3.856 7.24C4.144 6.76 4.512 6.328 4.96 5.944C5.424 5.56 5.928 5.264 6.472 5.056C7.032 4.832 7.576 4.72 8.104 4.72C8.632 4.72 9.072 4.872 9.424 5.176C9.792 5.464 10.064 5.992 10.24 6.76C10.432 7.528 10.528 8.64 10.528 10.096C10.528 11.088 10.488 12.144 10.408 13.264C10.344 14.384 10.272 15.488 10.192 16.576C10.112 17.664 10.056 18.656 10.024 19.552C10.28 18.576 10.64 17.536 11.104 16.432C11.584 15.328 12.104 14.232 12.664 13.144C13.24 12.04 13.808 11.008 14.368 10.048C14.928 9.088 15.432 8.256 15.88 7.552C16.328 6.848 16.656 6.336 16.864 6.016C17.088 5.696 17.28 5.456 17.44 5.296C17.6 5.12 17.808 5.032 18.064 5.032C18.288 5.032 18.544 5.088 18.832 5.2C18.72 5.488 18.56 5.92 18.352 6.496C18.16 7.056 17.96 7.744 17.752 8.56C17.496 9.536 17.24 10.648 16.984 11.896C16.728 13.128 16.488 14.384 16.264 15.664C16.056 16.944 15.888 18.152 15.76 19.288C15.632 20.408 15.568 21.352 15.568 22.12C15.568 22.472 15.584 22.744 15.616 22.936C15.648 23.128 15.688 23.296 15.736 23.44C15.8 23.6 15.864 23.816 15.928 24.088C15.096 24.088 14.56 23.88 14.32 23.464C14.08 23.064 13.96 22.376 13.96 21.4C13.96 19.496 14.2 17.456 14.68 15.28C15.176 13.088 15.736 10.816 16.36 8.464C15.896 9.056 15.408 9.808 14.896 10.72C14.4 11.616 13.896 12.592 13.384 13.648C12.888 14.688 12.408 15.736 11.944 16.792C11.496 17.832 11.096 18.8 10.744 19.696C10.392 20.592 10.12 21.336 9.928 21.928C9.832 21.96 9.768 21.984 9.736 22C9.704 22.016 9.648 22.024 9.568 22.024C9.136 22.024 8.848 21.768 8.704 21.256C8.576 20.744 8.512 20.024 8.512 19.096C8.512 18.44 8.528 17.664 8.56 16.768C8.608 15.856 8.656 14.92 8.704 13.96C8.752 13 8.792 12.08 8.824 11.2C8.872 10.304 8.896 9.536 8.896 8.896C8.896 8.576 8.888 8.312 8.872 8.104C8.872 7.896 8.864 7.712 8.848 7.552C7.568 10.528 6.496 13.072 5.632 15.184C4.768 17.28 4.04 18.984 3.448 20.296C2.872 21.608 2.36 22.568 1.912 23.176C1.464 23.784 1.024 24.088 0.592 24.088ZM21.2404 23.056C20.2644 23.056 19.5284 22.784 19.0324 22.24C18.5524 21.712 18.3124 21.056 18.3124 20.272C18.3124 19.552 18.4884 18.792 18.8404 17.992C19.2084 17.192 19.6884 16.44 20.2804 15.736C20.8884 15.032 21.5524 14.464 22.2724 14.032C22.9924 13.584 23.7044 13.36 24.4084 13.36C24.7764 13.36 25.1124 13.456 25.4164 13.648C25.7364 13.84 25.8964 14.232 25.8964 14.824C25.8964 15.432 25.7124 16.008 25.3444 16.552C24.9924 17.08 24.5204 17.552 23.9284 17.968C23.3524 18.384 22.7124 18.728 22.0084 19C21.3204 19.256 20.6324 19.416 19.9444 19.48C19.9124 19.64 19.8884 19.792 19.8724 19.936C19.8564 20.08 19.8484 20.216 19.8484 20.344C19.8484 20.84 19.9764 21.304 20.2324 21.736C20.5044 22.152 21.0084 22.36 21.7444 22.36C22.4324 22.36 23.1124 22.168 23.7844 21.784C24.4564 21.384 25.0804 20.864 25.6564 20.224C26.2324 19.584 26.7204 18.88 27.1204 18.112L27.4084 18.328C26.9764 19.288 26.4244 20.12 25.7524 20.824C25.0964 21.528 24.3764 22.072 23.5924 22.456C22.8244 22.856 22.0404 23.056 21.2404 23.056ZM20.0644 19.024C20.4964 18.88 20.9844 18.672 21.5284 18.4C22.0724 18.112 22.5924 17.776 23.0884 17.392C23.6004 17.008 24.0164 16.584 24.3364 16.12C24.6724 15.656 24.8404 15.168 24.8404 14.656C24.8404 14.48 24.8084 14.344 24.7444 14.248C24.6804 14.152 24.5444 14.104 24.3364 14.104C23.9524 14.104 23.5444 14.256 23.1124 14.56C22.6804 14.848 22.2644 15.232 21.8644 15.712C21.4644 16.192 21.1044 16.72 20.7844 17.296C20.4644 17.872 20.2244 18.448 20.0644 19.024ZM24.9604 11.968C24.8484 11.904 24.7604 11.8 24.6964 11.656C24.6484 11.512 24.6244 11.408 24.6244 11.344C24.6244 11.2 24.7044 10.976 24.8644 10.672C25.0404 10.352 25.2564 10.024 25.5124 9.688C25.7684 9.336 26.0404 9.04 26.3284 8.8C26.6164 8.56 26.8804 8.44 27.1204 8.44C27.2484 8.44 27.3604 8.496 27.4564 8.608C27.5684 8.704 27.6324 8.896 27.6484 9.184C27.0724 9.68 26.5684 10.152 26.1364 10.6C25.7044 11.048 25.3124 11.504 24.9604 11.968ZM29.1606 23.224C28.4086 23.224 27.8086 23.056 27.3606 22.72C26.9286 22.4 26.6246 22 26.4486 21.52C26.2566 21.04 26.1606 20.56 26.1606 20.08C26.1606 19.6 26.2246 19.232 26.3526 18.976C26.4806 18.72 26.6326 18.528 26.8086 18.4C27.0006 18.272 27.1766 18.176 27.3366 18.112C27.5126 18.048 27.6326 17.984 27.6966 17.92C28.1766 17.392 28.6166 16.84 29.0166 16.264C29.4166 15.688 29.7686 15.08 30.0726 14.44V14.152C30.0726 13.56 30.1686 13.144 30.3606 12.904C30.5686 12.648 30.7846 12.52 31.0086 12.52C31.2646 12.52 31.3926 12.624 31.3926 12.832C31.3926 12.912 31.3686 13.04 31.3206 13.216C31.2726 13.392 31.2486 13.616 31.2486 13.888C31.2486 14.416 31.3526 14.992 31.5606 15.616C31.7686 16.224 31.9766 16.872 32.1846 17.56C32.3926 18.232 32.4966 18.936 32.4966 19.672C32.4966 20.088 32.4486 20.48 32.3526 20.848C32.9126 20.752 33.4406 20.504 33.9366 20.104C34.4326 19.688 34.9126 19.032 35.3766 18.136L35.5926 18.376C35.2886 19.256 34.8326 19.928 34.2246 20.392C33.6166 20.84 32.9526 21.12 32.2326 21.232C31.9766 21.92 31.5686 22.424 31.0086 22.744C30.4646 23.064 29.8486 23.224 29.1606 23.224ZM30.8406 20.824C30.8726 20.664 30.8966 20.496 30.9126 20.32C30.9286 20.144 30.9366 19.936 30.9366 19.696C30.9366 18.944 30.8406 18.2 30.6486 17.464C30.4726 16.712 30.3206 16.008 30.1926 15.352C29.8246 15.96 29.4326 16.544 29.0166 17.104C28.6166 17.648 28.2326 18.104 27.8646 18.472C28.1046 18.984 28.4726 19.464 28.9686 19.912C29.4806 20.36 30.1046 20.664 30.8406 20.824ZM29.2086 22.384C29.4006 22.384 29.6566 22.32 29.9766 22.192C30.2966 22.064 30.5446 21.736 30.7206 21.208C30.0486 21.08 29.4486 20.816 28.9206 20.416C28.4086 20.016 28.0246 19.616 27.7686 19.216C27.4166 19.232 27.2406 19.512 27.2406 20.056C27.2406 20.632 27.4086 21.168 27.7446 21.664C28.0966 22.144 28.5846 22.384 29.2086 22.384ZM34.7941 28.72C34.2981 28.72 33.9141 28.624 33.6421 28.432C33.3541 28.256 33.2101 27.944 33.2101 27.496C33.2101 26.984 33.3861 26.504 33.7381 26.056C34.0741 25.624 34.5301 25.208 35.1061 24.808C35.6821 24.408 36.3141 24 37.0021 23.584C37.7061 23.184 38.4021 22.752 39.0901 22.288C39.0901 21.712 38.9701 21.184 38.7301 20.704C38.4901 20.224 38.0581 19.736 37.4341 19.24C37.9941 19.08 38.4661 18.8 38.8501 18.4C39.2501 18 39.5461 17.56 39.7381 17.08C39.9461 16.584 40.0501 16.128 40.0501 15.712C40.0501 15.344 39.9701 15.04 39.8101 14.8C39.6661 14.56 39.4341 14.44 39.1141 14.44C38.5861 14.44 38.1141 14.64 37.6981 15.04C37.2821 15.44 36.8981 15.968 36.5461 16.624C36.1941 17.28 35.8341 18 35.4661 18.784L35.1781 18.544C35.5301 17.584 35.8901 16.728 36.2581 15.976C36.6421 15.224 37.0901 14.632 37.6021 14.2C38.1141 13.752 38.7301 13.528 39.4501 13.528C39.9941 13.528 40.4581 13.704 40.8421 14.056C41.2421 14.408 41.4421 14.888 41.4421 15.496C41.4421 16.072 41.3061 16.608 41.0341 17.104C40.7621 17.6 40.4101 18.04 39.9781 18.424C39.5461 18.792 39.0901 19.096 38.6101 19.336C39.4421 19.976 40.0021 20.696 40.2901 21.496C40.8981 21.032 41.4341 20.528 41.8981 19.984C42.3781 19.424 42.7301 18.8 42.9541 18.112L43.2181 18.4C42.9941 19.12 42.6341 19.776 42.1381 20.368C41.6421 20.944 41.0741 21.472 40.4341 21.952C40.4661 22.064 40.4901 22.192 40.5061 22.336C40.5221 22.48 40.5301 22.616 40.5301 22.744C40.5301 23.464 40.3701 24.176 40.0501 24.88C39.7301 25.6 39.2981 26.248 38.7541 26.824C38.2101 27.4 37.5941 27.856 36.9061 28.192C36.2341 28.544 35.5301 28.72 34.7941 28.72ZM34.6261 28.024C34.9141 28.024 35.2901 27.904 35.7541 27.664C36.2181 27.44 36.6901 27.104 37.1701 26.656C37.6501 26.224 38.0661 25.688 38.4181 25.048C38.7701 24.408 38.9861 23.672 39.0661 22.84C38.2181 23.384 37.3941 23.888 36.5941 24.352C35.8101 24.816 35.1621 25.272 34.6501 25.72C34.1381 26.184 33.8821 26.688 33.8821 27.232C33.8821 27.504 33.9541 27.704 34.0981 27.832C34.2421 27.96 34.4181 28.024 34.6261 28.024ZM43.6833 23.128C43.1873 23.128 42.7713 22.96 42.4352 22.624C42.0832 22.304 41.9072 21.808 41.9072 21.136C41.9072 20.56 42.0352 19.944 42.2912 19.288C42.5472 18.616 42.8993 17.96 43.3473 17.32C43.7953 16.664 44.2993 16.072 44.8593 15.544C45.4353 15 46.0353 14.568 46.6593 14.248C47.2993 13.928 47.9313 13.768 48.5553 13.768C49.1793 13.768 49.6993 13.936 50.1153 14.272C50.5313 14.592 50.7393 15.024 50.7393 15.568C50.7393 15.968 50.6273 16.24 50.4033 16.384C50.1953 16.528 49.9153 16.6 49.5633 16.6C49.6433 16.312 49.6833 16.032 49.6833 15.76C49.6833 15.392 49.5953 15.08 49.4193 14.824C49.2433 14.552 48.9393 14.416 48.5073 14.416C48.0593 14.416 47.6033 14.576 47.1393 14.896C46.6753 15.2 46.2273 15.616 45.7953 16.144C45.3633 16.656 44.9793 17.216 44.6433 17.824C44.3073 18.432 44.0433 19.032 43.8513 19.624C43.6593 20.216 43.5633 20.744 43.5633 21.208C43.5633 21.832 43.7793 22.144 44.2113 22.144C44.5793 22.144 44.9793 21.976 45.4113 21.64C45.8433 21.288 46.2833 20.848 46.7313 20.32C47.1953 19.776 47.6353 19.216 48.0513 18.64C48.4673 18.064 48.8353 17.536 49.1553 17.056C49.2193 16.96 49.2593 16.912 49.2753 16.912C49.4193 16.928 49.6113 16.992 49.8513 17.104C50.0913 17.2 50.2113 17.336 50.2113 17.512C50.2113 17.656 50.1393 17.856 49.9953 18.112C49.8513 18.352 49.6913 18.632 49.5153 18.952C49.3393 19.272 49.1793 19.6 49.0353 19.936C48.8913 20.256 48.8193 20.56 48.8193 20.848C48.8193 21.088 48.8833 21.328 49.0113 21.568C49.1393 21.792 49.3473 21.904 49.6353 21.904C50.0673 21.904 50.6353 21.592 51.3393 20.968C52.0433 20.328 52.7553 19.376 53.4753 18.112L53.7153 18.352C53.3793 19.216 52.9473 19.976 52.4193 20.632C51.8913 21.288 51.3233 21.8 50.7153 22.168C50.1233 22.536 49.5393 22.72 48.9633 22.72C48.3713 22.72 47.9313 22.544 47.6433 22.192C47.3713 21.84 47.2353 21.456 47.2353 21.04C47.2353 20.832 47.2593 20.6 47.3073 20.344C46.6193 21.272 45.9873 21.968 45.4113 22.432C44.8513 22.896 44.2753 23.128 43.6833 23.128ZM49.5872 12.16C49.4753 12.096 49.3873 11.992 49.3233 11.848C49.2753 11.704 49.2513 11.6 49.2513 11.536C49.2513 11.392 49.3313 11.168 49.4913 10.864C49.6673 10.544 49.8833 10.216 50.1393 9.88C50.3953 9.528 50.6673 9.232 50.9553 8.992C51.2433 8.752 51.5073 8.632 51.7473 8.632C51.8753 8.632 51.9873 8.688 52.0833 8.8C52.1953 8.896 52.2593 9.088 52.2753 9.376C51.6993 9.872 51.1953 10.344 50.7633 10.792C50.3313 11.24 49.9393 11.696 49.5872 12.16ZM57.1364 22.624C56.5924 22.624 56.1604 22.48 55.8404 22.192C55.5364 21.904 55.3844 21.528 55.3844 21.064C55.3844 20.584 55.4964 20.08 55.7204 19.552C55.9444 19.024 56.1604 18.504 56.3684 17.992C56.5924 17.464 56.7044 16.992 56.7044 16.576C56.7044 16.064 56.5524 15.688 56.2484 15.448C55.9604 15.192 55.6644 14.96 55.3604 14.752C54.9924 15.696 54.6084 16.592 54.2084 17.44C53.8084 18.288 53.4804 18.928 53.2244 19.36L53.0084 18.952C53.2324 18.536 53.5204 17.928 53.8724 17.128C54.2404 16.328 54.6004 15.416 54.9524 14.392C54.7924 14.232 54.7124 14.04 54.7124 13.816C54.7124 13.336 54.8484 12.944 55.1204 12.64C55.3924 12.336 55.5924 12.184 55.7204 12.184C55.8964 12.184 55.9924 12.264 56.0084 12.424C56.0404 12.568 56.0564 12.68 56.0564 12.76C56.0564 12.84 56.0084 13 55.9124 13.24C55.8324 13.464 55.7924 13.6 55.7924 13.648C55.7924 13.872 55.9124 14.08 56.1524 14.272C56.4084 14.448 56.6964 14.656 57.0164 14.896C57.3364 15.12 57.6164 15.4 57.8564 15.736C58.1124 16.056 58.2404 16.472 58.2404 16.984C58.2404 17.464 58.1364 17.952 57.9284 18.448C57.7364 18.944 57.5364 19.416 57.3284 19.864C57.1364 20.312 57.0404 20.704 57.0404 21.04C57.0404 21.328 57.1124 21.52 57.2564 21.616C57.4004 21.712 57.5684 21.76 57.7604 21.76C58.1444 21.76 58.5364 21.64 58.9364 21.4C59.3524 21.16 59.7524 20.856 60.1364 20.488C60.5204 20.12 60.8644 19.736 61.1684 19.336C61.4724 18.92 61.6964 18.536 61.8404 18.184L62.1524 18.424C61.8484 19.096 61.4324 19.76 60.9044 20.416C60.3764 21.056 59.7844 21.584 59.1284 22C58.4884 22.416 57.8244 22.624 57.1364 22.624ZM62.9841 22.768C62.2961 22.768 61.8081 22.552 61.5201 22.12C61.2321 21.704 61.0881 21.192 61.0881 20.584C61.0881 20.088 61.1681 19.576 61.3281 19.048C61.4881 18.52 61.6961 18.024 61.9521 17.56C62.2241 17.096 62.5201 16.72 62.8401 16.432C63.1761 16.144 63.5121 16 63.8481 16C63.9921 16 64.1601 16.04 64.3521 16.12C64.2081 16.248 64.0321 16.488 63.8241 16.84C63.6321 17.176 63.4481 17.568 63.2721 18.016C63.0961 18.448 62.9441 18.88 62.8161 19.312C62.7041 19.744 62.6481 20.112 62.6481 20.416C62.6481 20.896 62.7281 21.248 62.8881 21.472C63.0481 21.68 63.2561 21.784 63.5121 21.784C63.8481 21.784 64.2481 21.608 64.7121 21.256C65.1761 20.888 65.6321 20.424 66.0801 19.864C65.6321 19.496 65.2801 19.016 65.0241 18.424C64.7841 17.816 64.6641 17.2 64.6641 16.576C64.6641 16.048 64.7521 15.552 64.9281 15.088C65.1201 14.624 65.3921 14.256 65.7441 13.984C66.0961 13.696 66.5201 13.552 67.0161 13.552C67.6721 13.552 68.1121 13.728 68.3361 14.08C68.5601 14.432 68.6721 14.872 68.6721 15.4C68.6721 16.024 68.5201 16.72 68.2161 17.488C67.9121 18.24 67.5281 18.968 67.0641 19.672C67.3521 19.832 67.6561 19.912 67.9761 19.912C68.3441 19.912 68.7921 19.792 69.3201 19.552C69.8481 19.296 70.2561 18.84 70.5441 18.184L70.8321 18.424C70.5121 19.176 70.0561 19.712 69.4641 20.032C68.8881 20.336 68.3361 20.488 67.8081 20.488C67.3761 20.488 66.9921 20.408 66.6561 20.248C66.1121 20.968 65.5121 21.568 64.8561 22.048C64.2161 22.528 63.5921 22.768 62.9841 22.768ZM66.5121 19.24C66.9121 18.648 67.2401 18.032 67.4961 17.392C67.7681 16.736 67.9041 16.12 67.9041 15.544C67.9041 15.08 67.8321 14.744 67.6881 14.536C67.5601 14.312 67.3921 14.2 67.1841 14.2C66.8641 14.2 66.5361 14.432 66.2001 14.896C65.8641 15.36 65.6961 15.944 65.6961 16.648C65.6961 17.112 65.7601 17.584 65.8881 18.064C66.0321 18.528 66.2401 18.92 66.5121 19.24ZM72.6138 23.224C71.8618 23.224 71.2618 23.056 70.8138 22.72C70.3818 22.4 70.0777 22 69.9017 21.52C69.7097 21.04 69.6137 20.56 69.6137 20.08C69.6137 19.6 69.6777 19.232 69.8057 18.976C69.9337 18.72 70.0857 18.528 70.2618 18.4C70.4538 18.272 70.6298 18.176 70.7898 18.112C70.9658 18.048 71.0858 17.984 71.1498 17.92C71.6298 17.392 72.0698 16.84 72.4698 16.264C72.8698 15.688 73.2218 15.08 73.5258 14.44V14.152C73.5258 13.56 73.6218 13.144 73.8138 12.904C74.0218 12.648 74.2378 12.52 74.4618 12.52C74.7178 12.52 74.8458 12.624 74.8458 12.832C74.8458 12.912 74.8218 13.04 74.7738 13.216C74.7258 13.392 74.7018 13.616 74.7018 13.888C74.7018 14.416 74.8058 14.992 75.0138 15.616C75.2218 16.224 75.4298 16.872 75.6378 17.56C75.8458 18.232 75.9498 18.936 75.9498 19.672C75.9498 20.088 75.9018 20.48 75.8058 20.848C76.3658 20.752 76.8938 20.504 77.3898 20.104C77.8858 19.688 78.3658 19.032 78.8298 18.136L79.0458 18.376C78.7418 19.256 78.2858 19.928 77.6778 20.392C77.0698 20.84 76.4058 21.12 75.6858 21.232C75.4298 21.92 75.0218 22.424 74.4618 22.744C73.9178 23.064 73.3018 23.224 72.6138 23.224ZM74.2938 20.824C74.3258 20.664 74.3498 20.496 74.3658 20.32C74.3818 20.144 74.3898 19.936 74.3898 19.696C74.3898 18.944 74.2938 18.2 74.1018 17.464C73.9258 16.712 73.7738 16.008 73.6458 15.352C73.2778 15.96 72.8858 16.544 72.4698 17.104C72.0698 17.648 71.6858 18.104 71.3178 18.472C71.5578 18.984 71.9258 19.464 72.4218 19.912C72.9338 20.36 73.5578 20.664 74.2938 20.824ZM72.6618 22.384C72.8538 22.384 73.1098 22.32 73.4298 22.192C73.7498 22.064 73.9978 21.736 74.1738 21.208C73.5018 21.08 72.9018 20.816 72.3738 20.416C71.8618 20.016 71.4778 19.616 71.2218 19.216C70.8698 19.232 70.6938 19.512 70.6938 20.056C70.6938 20.632 70.8618 21.168 71.1978 21.664C71.5498 22.144 72.0378 22.384 72.6618 22.384ZM88.9216 24.088C87.9616 24.088 87.1296 23.888 86.4256 23.488C85.7216 23.088 85.1776 22.56 84.7936 21.904C84.4256 21.232 84.2416 20.504 84.2416 19.72C84.2416 18.984 84.4016 18.264 84.7216 17.56C85.0416 16.856 85.4816 16.216 86.0416 15.64C86.6176 15.048 87.2816 14.568 88.0336 14.2C88.7856 13.816 89.5936 13.584 90.4576 13.504C89.8336 12.992 89.3696 12.4 89.0656 11.728C88.7776 11.056 88.6336 10.384 88.6336 9.712C88.6336 8.864 88.8416 8.064 89.2576 7.312C89.6896 6.544 90.2816 5.928 91.0336 5.464C91.7856 4.984 92.6336 4.744 93.5776 4.744C94.4736 4.744 95.1536 4.968 95.6176 5.416C96.0816 5.864 96.3136 6.504 96.3136 7.336C96.3136 7.928 96.2096 8.504 96.0016 9.064C95.7936 9.624 95.5376 10.08 95.2336 10.432C94.9456 10.784 94.6656 10.96 94.3936 10.96C94.2176 10.96 94.0496 10.888 93.8896 10.744C93.7296 10.584 93.6016 10.4 93.5056 10.192C94.0656 9.696 94.5376 9.176 94.9216 8.632C95.3216 8.072 95.5216 7.48 95.5216 6.856C95.5216 6.36 95.3776 5.976 95.0896 5.704C94.8016 5.432 94.3776 5.296 93.8176 5.296C93.0816 5.296 92.4576 5.52 91.9456 5.968C91.4336 6.4 91.0416 6.984 90.7696 7.72C90.5136 8.44 90.3856 9.24 90.3856 10.12C90.3856 10.696 90.4736 11.32 90.6496 11.992C90.8256 12.664 91.2016 13.248 91.7776 13.744C90.7056 13.92 89.7696 14.328 88.9696 14.968C88.1856 15.608 87.5696 16.36 87.1216 17.224C86.6896 18.088 86.4736 18.944 86.4736 19.792C86.4736 20.32 86.5696 20.856 86.7616 21.4C86.9696 21.928 87.2976 22.368 87.7456 22.72C88.1936 23.088 88.7936 23.272 89.5456 23.272C90.3936 23.272 91.2336 23.032 92.0656 22.552C92.9136 22.072 93.6896 21.44 94.3936 20.656C95.0976 19.872 95.6576 19.024 96.0736 18.112L96.4096 18.352C95.8496 19.44 95.1936 20.416 94.4416 21.28C93.6896 22.144 92.8496 22.824 91.9216 23.32C90.9936 23.832 89.9936 24.088 88.9216 24.088ZM98.0903 23.224C97.3383 23.224 96.7383 23.056 96.2903 22.72C95.8583 22.4 95.5543 22 95.3783 21.52C95.1863 21.04 95.0903 20.56 95.0903 20.08C95.0903 19.6 95.1543 19.232 95.2823 18.976C95.4103 18.72 95.5623 18.528 95.7383 18.4C95.9303 18.272 96.1063 18.176 96.2663 18.112C96.4423 18.048 96.5623 17.984 96.6263 17.92C97.1063 17.392 97.5463 16.84 97.9463 16.264C98.3463 15.688 98.6983 15.08 99.0023 14.44V14.152C99.0023 13.56 99.0983 13.144 99.2903 12.904C99.4983 12.648 99.7143 12.52 99.9383 12.52C100.194 12.52 100.322 12.624 100.322 12.832C100.322 12.912 100.298 13.04 100.25 13.216C100.202 13.392 100.178 13.616 100.178 13.888C100.178 14.416 100.282 14.992 100.49 15.616C100.698 16.224 100.906 16.872 101.114 17.56C101.322 18.232 101.426 18.936 101.426 19.672C101.426 20.088 101.378 20.48 101.282 20.848C101.842 20.752 102.37 20.504 102.866 20.104C103.362 19.688 103.842 19.032 104.306 18.136L104.522 18.376C104.218 19.256 103.762 19.928 103.154 20.392C102.546 20.84 101.882 21.12 101.162 21.232C100.906 21.92 100.498 22.424 99.9383 22.744C99.3943 23.064 98.7783 23.224 98.0903 23.224ZM99.7703 20.824C99.8023 20.664 99.8263 20.496 99.8423 20.32C99.8583 20.144 99.8663 19.936 99.8663 19.696C99.8663 18.944 99.7703 18.2 99.5783 17.464C99.4023 16.712 99.2503 16.008 99.1223 15.352C98.7543 15.96 98.3623 16.544 97.9463 17.104C97.5463 17.648 97.1623 18.104 96.7943 18.472C97.0343 18.984 97.4023 19.464 97.8983 19.912C98.4103 20.36 99.0343 20.664 99.7703 20.824ZM98.1383 22.384C98.3303 22.384 98.5863 22.32 98.9063 22.192C99.2263 22.064 99.4743 21.736 99.6503 21.208C98.9783 21.08 98.3783 20.816 97.8503 20.416C97.3383 20.016 96.9543 19.616 96.6983 19.216C96.3463 19.232 96.1703 19.512 96.1703 20.056C96.1703 20.632 96.3383 21.168 96.6743 21.664C97.0263 22.144 97.5143 22.384 98.1383 22.384ZM103.724 28.72C103.228 28.72 102.844 28.624 102.572 28.432C102.284 28.256 102.14 27.944 102.14 27.496C102.14 26.984 102.316 26.504 102.668 26.056C103.004 25.624 103.46 25.208 104.036 24.808C104.612 24.408 105.244 24 105.932 23.584C106.636 23.184 107.332 22.752 108.02 22.288C108.02 21.712 107.9 21.184 107.66 20.704C107.42 20.224 106.988 19.736 106.364 19.24C106.924 19.08 107.396 18.8 107.78 18.4C108.18 18 108.476 17.56 108.668 17.08C108.876 16.584 108.98 16.128 108.98 15.712C108.98 15.344 108.9 15.04 108.74 14.8C108.596 14.56 108.364 14.44 108.044 14.44C107.516 14.44 107.044 14.64 106.628 15.04C106.212 15.44 105.828 15.968 105.476 16.624C105.124 17.28 104.764 18 104.396 18.784L104.108 18.544C104.46 17.584 104.82 16.728 105.188 15.976C105.572 15.224 106.02 14.632 106.532 14.2C107.044 13.752 107.66 13.528 108.38 13.528C108.924 13.528 109.388 13.704 109.772 14.056C110.172 14.408 110.372 14.888 110.372 15.496C110.372 16.072 110.236 16.608 109.964 17.104C109.692 17.6 109.34 18.04 108.908 18.424C108.476 18.792 108.02 19.096 107.54 19.336C108.372 19.976 108.932 20.696 109.22 21.496C109.828 21.032 110.364 20.528 110.828 19.984C111.308 19.424 111.66 18.8 111.884 18.112L112.148 18.4C111.924 19.12 111.564 19.776 111.068 20.368C110.572 20.944 110.004 21.472 109.364 21.952C109.396 22.064 109.42 22.192 109.436 22.336C109.452 22.48 109.46 22.616 109.46 22.744C109.46 23.464 109.3 24.176 108.98 24.88C108.66 25.6 108.228 26.248 107.684 26.824C107.14 27.4 106.524 27.856 105.836 28.192C105.164 28.544 104.46 28.72 103.724 28.72ZM103.556 28.024C103.844 28.024 104.22 27.904 104.684 27.664C105.148 27.44 105.62 27.104 106.1 26.656C106.58 26.224 106.996 25.688 107.348 25.048C107.7 24.408 107.916 23.672 107.996 22.84C107.148 23.384 106.324 23.888 105.524 24.352C104.74 24.816 104.092 25.272 103.58 25.72C103.068 26.184 102.812 26.688 102.812 27.232C102.812 27.504 102.884 27.704 103.028 27.832C103.172 27.96 103.348 28.024 103.556 28.024ZM113.501 23.104C112.077 23.104 111.365 22.312 111.365 20.728C111.365 20.024 111.493 19.16 111.749 18.136C112.021 17.096 112.357 16.032 112.757 14.944C112.597 14.912 112.445 14.888 112.301 14.872C112.157 14.84 112.021 14.8 111.893 14.752V14.32C112.021 14.336 112.173 14.352 112.349 14.368C112.525 14.384 112.725 14.4 112.949 14.416C113.285 13.552 113.645 12.72 114.029 11.92C114.413 11.104 114.789 10.384 115.157 9.76C115.541 9.12 115.901 8.616 116.237 8.248C116.589 7.864 116.885 7.672 117.125 7.672C117.253 7.672 117.365 7.72 117.461 7.816C117.573 7.896 117.629 8.024 117.629 8.2C117.629 8.472 117.461 8.92 117.125 9.544C116.789 10.152 116.373 10.88 115.877 11.728C115.381 12.576 114.901 13.496 114.437 14.488H115.325C115.853 14.488 116.405 14.48 116.981 14.464C117.573 14.448 118.165 14.408 118.757 14.344V14.776C117.013 14.968 115.605 15.064 114.533 15.064H114.173C113.805 15.912 113.493 16.784 113.237 17.68C112.981 18.576 112.853 19.448 112.853 20.296C112.853 20.984 112.957 21.48 113.165 21.784C113.373 22.072 113.717 22.216 114.197 22.216C115.029 22.216 115.845 21.848 116.645 21.112C117.445 20.376 118.149 19.376 118.757 18.112L119.069 18.352C118.685 19.248 118.197 20.056 117.605 20.776C117.029 21.496 116.389 22.064 115.685 22.48C114.981 22.896 114.253 23.104 113.501 23.104ZM120.897 23.056C119.921 23.056 119.185 22.784 118.689 22.24C118.209 21.712 117.969 21.056 117.969 20.272C117.969 19.552 118.145 18.792 118.497 17.992C118.865 17.192 119.345 16.44 119.937 15.736C120.545 15.032 121.209 14.464 121.929 14.032C122.649 13.584 123.361 13.36 124.065 13.36C124.433 13.36 124.769 13.456 125.073 13.648C125.393 13.84 125.553 14.232 125.553 14.824C125.553 15.432 125.369 16.008 125.001 16.552C124.649 17.08 124.177 17.552 123.585 17.968C123.009 18.384 122.369 18.728 121.665 19C120.977 19.256 120.289 19.416 119.601 19.48C119.569 19.64 119.545 19.792 119.529 19.936C119.513 20.08 119.505 20.216 119.505 20.344C119.505 20.84 119.633 21.304 119.889 21.736C120.161 22.152 120.665 22.36 121.401 22.36C122.089 22.36 122.769 22.168 123.441 21.784C124.113 21.384 124.737 20.864 125.313 20.224C125.889 19.584 126.377 18.88 126.777 18.112L127.065 18.328C126.633 19.288 126.081 20.12 125.409 20.824C124.753 21.528 124.033 22.072 123.249 22.456C122.481 22.856 121.697 23.056 120.897 23.056ZM119.721 19.024C120.153 18.88 120.641 18.672 121.185 18.4C121.729 18.112 122.249 17.776 122.745 17.392C123.257 17.008 123.673 16.584 123.993 16.12C124.329 15.656 124.497 15.168 124.497 14.656C124.497 14.48 124.465 14.344 124.401 14.248C124.337 14.152 124.201 14.104 123.993 14.104C123.609 14.104 123.201 14.256 122.769 14.56C122.337 14.848 121.921 15.232 121.521 15.712C121.121 16.192 120.761 16.72 120.441 17.296C120.121 17.872 119.881 18.448 119.721 19.024ZM130.449 22.624C129.905 22.624 129.473 22.48 129.153 22.192C128.849 21.904 128.697 21.528 128.697 21.064C128.697 20.584 128.809 20.08 129.033 19.552C129.257 19.024 129.473 18.504 129.681 17.992C129.905 17.464 130.017 16.992 130.017 16.576C130.017 16.064 129.865 15.688 129.561 15.448C129.273 15.192 128.977 14.96 128.673 14.752C128.305 15.696 127.921 16.592 127.521 17.44C127.121 18.288 126.793 18.928 126.537 19.36L126.321 18.952C126.545 18.536 126.833 17.928 127.185 17.128C127.553 16.328 127.913 15.416 128.265 14.392C128.105 14.232 128.025 14.04 128.025 13.816C128.025 13.336 128.161 12.944 128.433 12.64C128.705 12.336 128.905 12.184 129.033 12.184C129.209 12.184 129.305 12.264 129.321 12.424C129.353 12.568 129.369 12.68 129.369 12.76C129.369 12.84 129.321 13 129.225 13.24C129.145 13.464 129.105 13.6 129.105 13.648C129.105 13.872 129.225 14.08 129.465 14.272C129.721 14.448 130.009 14.656 130.329 14.896C130.649 15.12 130.929 15.4 131.169 15.736C131.425 16.056 131.553 16.472 131.553 16.984C131.553 17.464 131.449 17.952 131.241 18.448C131.049 18.944 130.849 19.416 130.641 19.864C130.449 20.312 130.353 20.704 130.353 21.04C130.353 21.328 130.425 21.52 130.569 21.616C130.713 21.712 130.881 21.76 131.073 21.76C131.457 21.76 131.849 21.64 132.249 21.4C132.665 21.16 133.065 20.856 133.449 20.488C133.833 20.12 134.177 19.736 134.481 19.336C134.785 18.92 135.009 18.536 135.153 18.184L135.465 18.424C135.161 19.096 134.745 19.76 134.217 20.416C133.689 21.056 133.097 21.584 132.441 22C131.801 22.416 131.137 22.624 130.449 22.624Z" fill="white"/>
<path d="M25.384 37.098C25.384 37.126 25.3607 37.1447 25.314 37.154C25.2673 37.154 25.2393 37.14 25.23 37.112C25.202 36.6173 25.0527 36.2347 24.782 35.964C24.5113 35.684 24.152 35.544 23.704 35.544H22.85C22.5327 35.544 22.2947 35.5673 22.136 35.614C21.9773 35.6607 21.8653 35.7447 21.8 35.866C21.744 35.9873 21.716 36.1647 21.716 36.398V39.464H23.13C23.6247 39.464 23.9747 39.3893 24.18 39.24C24.3947 39.0813 24.502 38.8293 24.502 38.484C24.502 38.4653 24.53 38.456 24.586 38.456C24.642 38.456 24.67 38.4653 24.67 38.484L24.656 39.618C24.656 39.8887 24.6607 40.094 24.67 40.234L24.684 40.906C24.684 40.9247 24.656 40.934 24.6 40.934C24.544 40.934 24.516 40.9247 24.516 40.906C24.516 40.4953 24.404 40.2013 24.18 40.024C23.9653 39.8467 23.6013 39.758 23.088 39.758H21.716V42.81C21.716 43.1087 21.7533 43.328 21.828 43.468C21.912 43.5987 22.0707 43.692 22.304 43.748C22.5373 43.804 22.906 43.832 23.41 43.832C23.438 43.832 23.452 43.86 23.452 43.916C23.452 43.972 23.438 44 23.41 44C23.0273 44 22.7287 43.9953 22.514 43.986L21.254 43.972L20.302 43.986C20.134 43.9953 19.896 44 19.588 44C19.5693 44 19.56 43.972 19.56 43.916C19.56 43.86 19.5693 43.832 19.588 43.832C19.9427 43.832 20.204 43.8087 20.372 43.762C20.54 43.7153 20.652 43.6267 20.708 43.496C20.7733 43.356 20.806 43.146 20.806 42.866V36.384C20.806 36.104 20.7733 35.8987 20.708 35.768C20.652 35.6373 20.54 35.5487 20.372 35.502C20.2133 35.446 19.9567 35.418 19.602 35.418C19.5833 35.418 19.574 35.39 19.574 35.334C19.574 35.278 19.5833 35.25 19.602 35.25H25.23C25.314 35.25 25.356 35.292 25.356 35.376L25.384 37.098ZM31.247 44.168C30.379 44.168 29.6044 43.9673 28.923 43.566C28.251 43.1553 27.7284 42.6047 27.355 41.914C26.991 41.214 26.809 40.4533 26.809 39.632C26.809 38.6707 27.0517 37.8493 27.537 37.168C28.0224 36.4773 28.643 35.9593 29.399 35.614C30.1644 35.2687 30.9437 35.096 31.737 35.096C32.6237 35.096 33.403 35.306 34.075 35.726C34.747 36.1367 35.2604 36.6827 35.615 37.364C35.979 38.0453 36.161 38.7687 36.161 39.534C36.161 40.3833 35.937 41.1627 35.489 41.872C35.041 42.5813 34.439 43.1413 33.683 43.552C32.9364 43.9627 32.1244 44.168 31.247 44.168ZM31.737 43.874C32.3717 43.874 32.941 43.72 33.445 43.412C33.9584 43.104 34.3597 42.6513 34.649 42.054C34.9477 41.4567 35.097 40.7473 35.097 39.926C35.097 39.0487 34.9337 38.2693 34.607 37.588C34.2804 36.9067 33.8184 36.3747 33.221 35.992C32.633 35.6093 31.9424 35.418 31.149 35.418C30.1224 35.418 29.3197 35.7493 28.741 36.412C28.1624 37.0747 27.873 37.9847 27.873 39.142C27.873 40.0193 28.0364 40.822 28.363 41.55C28.6897 42.2687 29.147 42.838 29.735 43.258C30.323 43.6687 30.9904 43.874 31.737 43.874ZM39.2144 35.502C38.6264 35.502 38.183 35.6513 37.8844 35.95C37.595 36.2487 37.385 36.7573 37.2544 37.476C37.2544 37.4947 37.2264 37.504 37.1704 37.504C37.1237 37.504 37.1004 37.4947 37.1004 37.476C37.1377 37.14 37.1797 36.7013 37.2264 36.16C37.273 35.6187 37.2964 35.2127 37.2964 34.942C37.2964 34.8953 37.3197 34.872 37.3664 34.872C37.4224 34.872 37.4504 34.8953 37.4504 34.942C37.4504 35.1473 37.7024 35.25 38.2064 35.25C38.9997 35.278 39.9377 35.292 41.0204 35.292C41.571 35.292 42.1544 35.2827 42.7704 35.264L43.7224 35.25C44.0584 35.25 44.3057 35.2267 44.4644 35.18C44.6324 35.1333 44.7397 35.04 44.7864 34.9C44.7957 34.8627 44.8237 34.844 44.8704 34.844C44.917 34.844 44.9404 34.8627 44.9404 34.9C44.9124 35.1707 44.8844 35.5813 44.8564 36.132C44.8284 36.6827 44.8144 37.1307 44.8144 37.476C44.8144 37.4947 44.7864 37.504 44.7304 37.504C44.6744 37.504 44.6464 37.4947 44.6464 37.476C44.6184 36.748 44.469 36.2393 44.1984 35.95C43.9277 35.6513 43.4797 35.502 42.8544 35.502C42.4344 35.502 42.1357 35.5207 41.9584 35.558C41.781 35.5953 41.6597 35.6747 41.5944 35.796C41.529 35.9173 41.4964 36.1227 41.4964 36.412V42.866C41.4964 43.1553 41.529 43.3653 41.5944 43.496C41.6597 43.6267 41.7857 43.7153 41.9724 43.762C42.159 43.8087 42.453 43.832 42.8544 43.832C42.8824 43.832 42.8964 43.86 42.8964 43.916C42.8964 43.972 42.8824 44 42.8544 44C42.5464 44 42.299 43.9953 42.1124 43.986L41.0204 43.972L39.9704 43.986C39.7837 43.9953 39.527 44 39.2004 44C39.1817 44 39.1724 43.972 39.1724 43.916C39.1724 43.86 39.1817 43.832 39.2004 43.832C39.6017 43.832 39.8957 43.8087 40.0824 43.762C40.269 43.7153 40.395 43.6267 40.4604 43.496C40.535 43.356 40.5724 43.146 40.5724 42.866V36.384C40.5724 36.0947 40.5397 35.894 40.4744 35.782C40.409 35.6607 40.2877 35.586 40.1104 35.558C39.933 35.5207 39.6344 35.502 39.2144 35.502ZM50.3877 44.168C49.5197 44.168 48.745 43.9673 48.0637 43.566C47.3917 43.1553 46.869 42.6047 46.4957 41.914C46.1317 41.214 45.9497 40.4533 45.9497 39.632C45.9497 38.6707 46.1923 37.8493 46.6777 37.168C47.163 36.4773 47.7837 35.9593 48.5397 35.614C49.305 35.2687 50.0843 35.096 50.8777 35.096C51.7643 35.096 52.5437 35.306 53.2157 35.726C53.8877 36.1367 54.401 36.6827 54.7557 37.364C55.1197 38.0453 55.3017 38.7687 55.3017 39.534C55.3017 40.3833 55.0777 41.1627 54.6297 41.872C54.1817 42.5813 53.5797 43.1413 52.8237 43.552C52.077 43.9627 51.265 44.168 50.3877 44.168ZM50.8777 43.874C51.5123 43.874 52.0817 43.72 52.5857 43.412C53.099 43.104 53.5003 42.6513 53.7897 42.054C54.0883 41.4567 54.2377 40.7473 54.2377 39.926C54.2377 39.0487 54.0743 38.2693 53.7477 37.588C53.421 36.9067 52.959 36.3747 52.3617 35.992C51.7737 35.6093 51.083 35.418 50.2897 35.418C49.263 35.418 48.4603 35.7493 47.8817 36.412C47.303 37.0747 47.0137 37.9847 47.0137 39.142C47.0137 40.0193 47.177 40.822 47.5037 41.55C47.8303 42.2687 48.2877 42.838 48.8757 43.258C49.4637 43.6687 50.131 43.874 50.8777 43.874ZM61.6944 44.168C60.6678 44.168 59.7718 43.9627 59.0064 43.552C58.2504 43.1413 57.6718 42.586 57.2704 41.886C56.8691 41.186 56.6684 40.416 56.6684 39.576C56.6684 38.6707 56.8971 37.882 57.3544 37.21C57.8118 36.5287 58.4371 36.006 59.2304 35.642C60.0331 35.278 60.9291 35.096 61.9184 35.096C62.4131 35.096 62.8798 35.1427 63.3184 35.236C63.7571 35.3293 64.1211 35.4647 64.4104 35.642C64.4851 35.6793 64.5271 35.712 64.5364 35.74C64.5458 35.768 64.5551 35.838 64.5644 35.95L64.7324 37.602C64.7324 37.63 64.7044 37.6487 64.6484 37.658C64.6018 37.6673 64.5738 37.6533 64.5644 37.616C64.1351 36.0853 63.1644 35.32 61.6524 35.32C60.9151 35.32 60.2478 35.488 59.6504 35.824C59.0624 36.1507 58.5958 36.622 58.2504 37.238C57.9144 37.8447 57.7464 38.554 57.7464 39.366C57.7464 40.1593 57.9098 40.906 58.2364 41.606C58.5631 42.306 59.0531 42.8753 59.7064 43.314C60.3598 43.7433 61.1484 43.958 62.0724 43.958C62.7351 43.958 63.2018 43.832 63.4724 43.58C63.7431 43.3187 63.8784 42.8753 63.8784 42.25C63.8784 41.7647 63.8458 41.4287 63.7804 41.242C63.7244 41.046 63.5891 40.9153 63.3744 40.85C63.1691 40.7847 62.8051 40.752 62.2824 40.752C62.2264 40.752 62.1984 40.7147 62.1984 40.64C62.1984 40.612 62.2031 40.5887 62.2124 40.57C62.2311 40.542 62.2498 40.528 62.2684 40.528C62.9964 40.5747 63.5844 40.598 64.0324 40.598C64.4618 40.598 64.9238 40.584 65.4184 40.556C65.4371 40.556 65.4511 40.57 65.4604 40.598C65.4791 40.6167 65.4884 40.6353 65.4884 40.654C65.4884 40.7193 65.4651 40.752 65.4184 40.752C65.1851 40.7427 65.0218 40.7753 64.9284 40.85C64.8444 40.9153 64.7884 41.0553 64.7604 41.27C64.7324 41.4753 64.7184 41.8487 64.7184 42.39C64.7184 42.81 64.7324 43.1087 64.7604 43.286C64.7978 43.4633 64.8164 43.5753 64.8164 43.622C64.8164 43.678 64.8071 43.7153 64.7884 43.734C64.7698 43.7527 64.7278 43.7713 64.6624 43.79C63.5051 44.042 62.5158 44.168 61.6944 44.168ZM75.5386 43.832C75.5572 43.832 75.5666 43.86 75.5666 43.916C75.5666 43.972 75.5572 44 75.5386 44H73.7326C73.4992 44 73.0606 43.6127 72.4166 42.838C71.7726 42.0633 71.0072 40.9993 70.1206 39.646C69.8686 39.702 69.6072 39.73 69.3366 39.73C69.2806 39.73 69.0706 39.716 68.7066 39.688V42.866C68.7066 43.1553 68.7346 43.3653 68.7906 43.496C68.8466 43.6267 68.9539 43.7153 69.1126 43.762C69.2806 43.8087 69.5419 43.832 69.8966 43.832C69.9246 43.832 69.9386 43.86 69.9386 43.916C69.9386 43.972 69.9246 44 69.8966 44C69.6072 44 69.3786 43.9953 69.2106 43.986L68.2446 43.972L67.2926 43.986C67.1246 43.9953 66.8866 44 66.5786 44C66.5599 44 66.5506 43.972 66.5506 43.916C66.5506 43.86 66.5599 43.832 66.5786 43.832C66.9332 43.832 67.1946 43.8087 67.3626 43.762C67.5306 43.7153 67.6426 43.6267 67.6986 43.496C67.7639 43.356 67.7966 43.146 67.7966 42.866V36.384C67.7966 36.104 67.7686 35.8987 67.7126 35.768C67.6566 35.6373 67.5446 35.5487 67.3766 35.502C67.2179 35.446 66.9612 35.418 66.6066 35.418C66.5786 35.418 66.5646 35.39 66.5646 35.334C66.5646 35.278 66.5786 35.25 66.6066 35.25L67.2926 35.264C67.6846 35.2827 68.0019 35.292 68.2446 35.292C68.4499 35.292 68.6412 35.2873 68.8186 35.278C68.9959 35.2687 69.1452 35.2593 69.2666 35.25C69.6119 35.222 69.9246 35.208 70.2046 35.208C70.9419 35.208 71.5112 35.376 71.9126 35.712C72.3139 36.048 72.5146 36.496 72.5146 37.056C72.5146 37.56 72.3652 38.0173 72.0666 38.428C71.7772 38.8293 71.3899 39.1467 70.9046 39.38C71.6886 40.5093 72.3466 41.396 72.8786 42.04C73.4199 42.6747 73.8959 43.132 74.3066 43.412C74.7266 43.692 75.1372 43.832 75.5386 43.832ZM68.7066 39.352C68.9399 39.3893 69.2152 39.408 69.5326 39.408C70.2606 39.408 70.7786 39.2493 71.0866 38.932C71.4039 38.6147 71.5626 38.1247 71.5626 37.462C71.5626 36.734 71.3992 36.2113 71.0726 35.894C70.7552 35.5767 70.2886 35.418 69.6726 35.418C69.3086 35.418 69.0566 35.4833 68.9166 35.614C68.7766 35.7447 68.7066 36.0107 68.7066 36.412V39.352ZM78.7985 34.508C78.7612 34.508 78.7332 34.4893 78.7145 34.452C78.7052 34.4053 78.7145 34.3727 78.7425 34.354C79.1438 34.1487 79.6245 33.8733 80.1845 33.528C80.5578 33.304 80.8378 33.1407 81.0245 33.038C81.0618 33.01 81.1692 33.0287 81.3465 33.094C81.5332 33.15 81.6918 33.2153 81.8225 33.29C81.9625 33.3647 81.9952 33.4067 81.9205 33.416C80.8192 33.696 79.7832 34.06 78.8125 34.508H78.7985ZM85.1825 43.832C85.2198 43.832 85.2385 43.86 85.2385 43.916C85.2385 43.972 85.2198 44 85.1825 44C85.0052 44 84.7298 43.9907 84.3565 43.972C83.9832 43.9533 83.7125 43.944 83.5445 43.944C83.3392 43.944 83.0778 43.9533 82.7605 43.972C82.4618 43.9907 82.2332 44 82.0745 44C82.0372 44 82.0185 43.972 82.0185 43.916C82.0185 43.86 82.0372 43.832 82.0745 43.832C82.4198 43.832 82.6718 43.7993 82.8305 43.734C82.9892 43.6687 83.0685 43.5567 83.0685 43.398C83.0685 43.2673 83.0078 43.0667 82.8865 42.796L81.6405 40.15H78.3085L77.4265 42.222C77.2958 42.5393 77.2305 42.796 77.2305 42.992C77.2305 43.2813 77.3425 43.496 77.5665 43.636C77.7998 43.7667 78.1452 43.832 78.6025 43.832C78.6492 43.832 78.6725 43.86 78.6725 43.916C78.6725 43.972 78.6492 44 78.6025 44C78.4345 44 78.1918 43.9907 77.8745 43.972C77.5198 43.9533 77.2118 43.944 76.9505 43.944C76.7078 43.944 76.4278 43.9533 76.1105 43.972C75.8305 43.9907 75.5972 44 75.4105 44C75.3638 44 75.3405 43.972 75.3405 43.916C75.3405 43.86 75.3638 43.832 75.4105 43.832C75.6718 43.832 75.8912 43.7853 76.0685 43.692C76.2552 43.5893 76.4278 43.4167 76.5865 43.174C76.7545 42.922 76.9365 42.5627 77.1325 42.096L80.0865 35.124C80.1052 35.096 80.1378 35.082 80.1845 35.082C80.2312 35.082 80.2592 35.096 80.2685 35.124L83.5725 42.082C83.8898 42.7727 84.1605 43.2393 84.3845 43.482C84.6085 43.7153 84.8745 43.832 85.1825 43.832ZM78.4205 39.87H81.5145L79.8765 36.412L78.4205 39.87ZM91.6106 37.098C91.6106 37.126 91.5872 37.1447 91.5406 37.154C91.4939 37.154 91.4659 37.14 91.4566 37.112C91.4286 36.6173 91.2792 36.2347 91.0086 35.964C90.7379 35.684 90.3786 35.544 89.9306 35.544H89.0766C88.7592 35.544 88.5212 35.5673 88.3626 35.614C88.2039 35.6607 88.0919 35.7447 88.0266 35.866C87.9706 35.9873 87.9426 36.1647 87.9426 36.398V39.464H89.3566C89.8512 39.464 90.2012 39.3893 90.4066 39.24C90.6212 39.0813 90.7286 38.8293 90.7286 38.484C90.7286 38.4653 90.7566 38.456 90.8126 38.456C90.8686 38.456 90.8966 38.4653 90.8966 38.484L90.8826 39.618C90.8826 39.8887 90.8872 40.094 90.8966 40.234L90.9106 40.906C90.9106 40.9247 90.8826 40.934 90.8266 40.934C90.7706 40.934 90.7426 40.9247 90.7426 40.906C90.7426 40.4953 90.6306 40.2013 90.4066 40.024C90.1919 39.8467 89.8279 39.758 89.3146 39.758H87.9426V42.81C87.9426 43.1087 87.9799 43.328 88.0546 43.468C88.1386 43.5987 88.2972 43.692 88.5306 43.748C88.7639 43.804 89.1326 43.832 89.6366 43.832C89.6646 43.832 89.6786 43.86 89.6786 43.916C89.6786 43.972 89.6646 44 89.6366 44C89.2539 44 88.9552 43.9953 88.7406 43.986L87.4806 43.972L86.5286 43.986C86.3606 43.9953 86.1226 44 85.8146 44C85.7959 44 85.7866 43.972 85.7866 43.916C85.7866 43.86 85.7959 43.832 85.8146 43.832C86.1692 43.832 86.4306 43.8087 86.5986 43.762C86.7666 43.7153 86.8786 43.6267 86.9346 43.496C86.9999 43.356 87.0326 43.146 87.0326 42.866V36.384C87.0326 36.104 86.9999 35.8987 86.9346 35.768C86.8786 35.6373 86.7666 35.5487 86.5986 35.502C86.4399 35.446 86.1832 35.418 85.8286 35.418C85.8099 35.418 85.8006 35.39 85.8006 35.334C85.8006 35.278 85.8099 35.25 85.8286 35.25H91.4566C91.5406 35.25 91.5826 35.292 91.5826 35.376L91.6106 37.098ZM100.358 36.79C100.358 35.8753 99.9516 35.418 99.1396 35.418C99.1116 35.418 99.0976 35.39 99.0976 35.334C99.0976 35.278 99.1116 35.25 99.1396 35.25L99.7416 35.264C100.078 35.2827 100.344 35.292 100.54 35.292C100.698 35.292 100.927 35.2827 101.226 35.264L101.814 35.25C101.832 35.25 101.842 35.278 101.842 35.334C101.842 35.39 101.832 35.418 101.814 35.418C101.067 35.418 100.694 35.8753 100.694 36.79V40.766C100.694 41.8393 100.395 42.6793 99.7976 43.286C99.2003 43.8833 98.3976 44.182 97.3896 44.182C96.6989 44.182 96.0923 44.0467 95.5696 43.776C95.0563 43.5053 94.6549 43.1227 94.3656 42.628C94.0856 42.124 93.9456 41.536 93.9456 40.864V36.384C93.9456 36.104 93.9176 35.8987 93.8616 35.768C93.8056 35.6373 93.6936 35.5487 93.5256 35.502C93.3669 35.446 93.1103 35.418 92.7556 35.418C92.7369 35.418 92.7276 35.39 92.7276 35.334C92.7276 35.278 92.7369 35.25 92.7556 35.25L93.4416 35.264C93.8336 35.2827 94.1509 35.292 94.3936 35.292C94.6549 35.292 94.9816 35.2827 95.3736 35.264L96.0456 35.25C96.0736 35.25 96.0876 35.278 96.0876 35.334C96.0876 35.39 96.0736 35.418 96.0456 35.418C95.7003 35.418 95.4436 35.446 95.2756 35.502C95.1076 35.558 94.9956 35.656 94.9396 35.796C94.8836 35.9267 94.8556 36.132 94.8556 36.412V40.374C94.8556 41.466 95.1029 42.306 95.5976 42.894C96.1016 43.4727 96.8016 43.762 97.6976 43.762C98.5376 43.762 99.1909 43.5007 99.6576 42.978C100.124 42.446 100.358 41.7133 100.358 40.78V36.79ZM104.059 36.888C104.059 37.252 104.148 37.5693 104.325 37.84C104.503 38.1107 104.717 38.3393 104.969 38.526C105.231 38.7033 105.585 38.9273 106.033 39.198C106.528 39.4967 106.906 39.744 107.167 39.94C107.438 40.136 107.667 40.388 107.853 40.696C108.049 40.9947 108.147 41.354 108.147 41.774C108.147 42.222 108.035 42.628 107.811 42.992C107.587 43.356 107.256 43.6453 106.817 43.86C106.388 44.0653 105.87 44.168 105.263 44.168C104.545 44.168 103.887 44.0047 103.289 43.678C103.243 43.65 103.21 43.6173 103.191 43.58C103.182 43.5427 103.173 43.4867 103.163 43.412L102.981 41.508C102.972 41.4707 102.991 41.4473 103.037 41.438C103.093 41.4287 103.126 41.4427 103.135 41.48C103.285 42.152 103.56 42.7307 103.961 43.216C104.372 43.7013 104.913 43.944 105.585 43.944C106.052 43.944 106.444 43.818 106.761 43.566C107.088 43.3047 107.251 42.894 107.251 42.334C107.251 41.914 107.158 41.55 106.971 41.242C106.785 40.934 106.556 40.682 106.285 40.486C106.024 40.2807 105.665 40.0427 105.207 39.772C104.759 39.5013 104.405 39.268 104.143 39.072C103.891 38.876 103.677 38.6287 103.499 38.33C103.322 38.0313 103.233 37.6813 103.233 37.28C103.233 36.8133 103.355 36.4167 103.597 36.09C103.849 35.754 104.171 35.5067 104.563 35.348C104.965 35.18 105.389 35.096 105.837 35.096C106.388 35.096 106.934 35.208 107.475 35.432C107.615 35.4787 107.685 35.558 107.685 35.67L107.783 37.28C107.783 37.3173 107.76 37.336 107.713 37.336C107.667 37.336 107.639 37.3173 107.629 37.28C107.555 36.7947 107.354 36.3467 107.027 35.936C106.701 35.516 106.229 35.306 105.613 35.306C105.091 35.306 104.699 35.46 104.437 35.768C104.185 36.0667 104.059 36.44 104.059 36.888Z" fill="white"/>
</svg>
